<svg xmlns:ns0="http://www.w3.org/2000/svg" xmlns="http://www.w3.org/2000/svg" viewBox="0 0 900 558.3"><svg x="290" y="0" width="320" height="320" viewBox="37.4561 -14.7105 326.754 326.754"><ns0:defs><ns0:g id="img1"><ns0:g id="layer_background">
    <ns0:path d="m59 0v202h-59v-202z" fill="#ff0000" fill-rule="evenodd" />
  </ns0:g>
  <ns0:g id="layer_foreground">
    <ns0:path d="m35.8 177.6l4.1 4-8.9 0.3-12.7-12.3 0.2-8.7 12.8 12.2zm10.3 3.4l-0.1 7.8-28-0.5 0.1-7.8zm0.4-20.2l-0.2 9.2-11.7 9-5.4-5.3zm0.1-5.5l-0.2 8.1-27.8-12.8 0.2-7.8 28.2-11.9-0.2 8.2-24.3 9.3 0.1-3.1zm-5.2-16.6l-0.3 17.8-5.8-2.1 0.3-13.7zm-25 6.3l-0.1 5.4-6-5.4 0.2-7.6zm31.2-23.3q0 3.1-1.1 5.6-1.1 2.5-3.2 4.1l-5-4.4q1.4-1.1 2.2-2.3 0.7-1.2 0.8-2.5 0-3.5-4.1-3.6l-12-0.2-0.1 9.7-6.2-0.1 0.3-17.5 17.7 0.3q5.5 0 8.2 2.9 2.6 2.8 2.5 8zm0.5-30.3q0 3.4-1.2 6.2-1.1 2.9-3.1 4.9-2 2.1-4.6 3.2-2.8 1.1-5.9 1.1-3.2-0.1-5.8-1.3-2.6-1.2-4.5-3.3-2-2.2-3-5-1-2.9-1-6.2 0.1-3.4 1.2-6.2 1.1-2.8 3.2-4.9 1.9-2 4.6-3.1 2.7-1.2 5.8-1.1 3.2 0 5.8 1.3 2.7 1.1 4.6 3.3 1.9 2.1 2.9 4.9 1.1 2.9 1 6.2zm-6.5-0.1q0-1.6-0.5-2.9-0.6-1.4-1.6-2.4-1.1-1.1-2.5-1.7-1.5-0.6-3.3-0.6-1.8-0.1-3.3 0.5-1.5 0.5-2.5 1.6-1.1 0.9-1.7 2.3-0.6 1.4-0.7 3 0 1.6 0.6 3 0.5 1.3 1.6 2.4 1 1 2.5 1.7 1.4 0.5 3.2 0.6 1.8 0 3.4-0.5 1.4-0.6 2.5-1.6 1.1-1 1.7-2.4 0.6-1.4 0.6-3zm6.6-35l-0.2 7.8-28.2 11.5 0.2-8.6 24.4-9.7-0.1 5.1-24.1-10.7 0.2-7.9zm1-27.3q-0.1 3.3-1.2 6.2-1.1 2.8-3.1 4.9-2 2-4.7 3.1-2.7 1.1-5.9 1.1-3.1-0.1-5.7-1.3-2.6-1.2-4.6-3.3-1.9-2.1-2.9-5-1.1-2.9-1-6.2 0-3.4 1.2-6.2 1.1-2.8 3.1-4.9 2-2 4.7-3.1 2.6-1.2 5.8-1.1 3.1 0 5.8 1.3 2.6 1.2 4.5 3.3 2 2.1 3 5 1 2.8 1 6.2zm-6.6-0.1q0.1-1.6-0.4-3-0.6-1.4-1.6-2.4-1.1-1.1-2.5-1.7-1.5-0.6-3.4-0.6-1.8-0.1-3.2 0.5-1.5 0.5-2.6 1.6-1.1 1-1.7 2.3-0.6 1.4-0.6 3 0 1.6 0.5 3 0.6 1.4 1.6 2.4 1 1.1 2.5 1.7 1.5 0.5 3.3 0.6 1.8 0 3.3-0.5 1.5-0.6 2.6-1.6 1-1 1.7-2.3 0.5-1.4 0.5-3z" fill="#ffffff" />
  </ns0:g>
</ns0:g></ns0:defs><ns0:style>.a{fill:#23292c}.b{stroke:#000;stroke-miterlimit:100}.c{fill:#262b31}.d{fill:#52555d}.e{fill:#000001}</ns0:style><ns0:path class="a" d="m250 60v58h-112v-58zm-54 58v48h-58v-48z" /><ns0:path fill-rule="evenodd" d="m237 135v26h-26v-26z" /><ns0:path fill-rule="evenodd" class="b" d="m324 165.3v70.7h-186v-57h113.2l0.1-30 59.9-51.1-11.7-12.5-33.5 28.6 0.2-53.5 58 0.3-0.5 90.5-56.5 0.2v14z" /><ns0:use href="#img1" transform="matrix(.879,0,0,.879,76.739,59.953)" /></svg><svg x="0" y="390" width="900" height="168.3" viewBox="316.667 72.52 746.667 139.627"><ns0:defs><ns0:g id="img1"><ns0:g id="layer_background">
    <ns0:path d="m59 0v202h-59v-202z" fill="#ff0000" fill-rule="evenodd" />
  </ns0:g>
  <ns0:g id="layer_foreground">
    <ns0:path d="m35.8 177.6l4.1 4-8.9 0.3-12.7-12.3 0.2-8.7 12.8 12.2zm10.3 3.4l-0.1 7.8-28-0.5 0.1-7.8zm0.4-20.2l-0.2 9.2-11.7 9-5.4-5.3zm0.1-5.5l-0.2 8.1-27.8-12.8 0.2-7.8 28.2-11.9-0.2 8.2-24.3 9.3 0.1-3.1zm-5.2-16.6l-0.3 17.8-5.8-2.1 0.3-13.7zm-25 6.3l-0.1 5.4-6-5.4 0.2-7.6zm31.2-23.3q0 3.1-1.1 5.6-1.1 2.5-3.2 4.1l-5-4.4q1.4-1.1 2.2-2.3 0.7-1.2 0.8-2.5 0-3.5-4.1-3.6l-12-0.2-0.1 9.7-6.2-0.1 0.3-17.5 17.7 0.3q5.5 0 8.2 2.9 2.6 2.8 2.5 8zm0.5-30.3q0 3.4-1.2 6.2-1.1 2.9-3.1 4.9-2 2.1-4.6 3.2-2.8 1.1-5.9 1.1-3.2-0.1-5.8-1.3-2.6-1.2-4.5-3.3-2-2.2-3-5-1-2.9-1-6.2 0.1-3.4 1.2-6.2 1.1-2.8 3.2-4.9 1.9-2 4.6-3.1 2.7-1.2 5.8-1.1 3.2 0 5.8 1.3 2.7 1.1 4.6 3.3 1.9 2.1 2.9 4.9 1.1 2.9 1 6.2zm-6.5-0.1q0-1.6-0.5-2.9-0.6-1.4-1.6-2.4-1.1-1.1-2.5-1.7-1.5-0.6-3.3-0.6-1.8-0.1-3.3 0.5-1.5 0.5-2.5 1.6-1.1 0.9-1.7 2.3-0.6 1.4-0.7 3 0 1.6 0.6 3 0.5 1.3 1.6 2.4 1 1 2.5 1.7 1.4 0.5 3.2 0.6 1.8 0 3.4-0.5 1.4-0.6 2.5-1.6 1.1-1 1.7-2.4 0.6-1.4 0.6-3zm6.6-35l-0.2 7.8-28.2 11.5 0.2-8.6 24.4-9.7-0.1 5.1-24.1-10.7 0.2-7.9zm1-27.3q-0.1 3.3-1.2 6.2-1.1 2.8-3.1 4.9-2 2-4.7 3.1-2.7 1.1-5.9 1.1-3.1-0.1-5.7-1.3-2.6-1.2-4.6-3.3-1.9-2.1-2.9-5-1.1-2.9-1-6.2 0-3.4 1.2-6.2 1.1-2.8 3.1-4.9 2-2 4.7-3.1 2.6-1.2 5.8-1.1 3.1 0 5.8 1.3 2.6 1.2 4.5 3.3 2 2.1 3 5 1 2.8 1 6.2zm-6.6-0.1q0.1-1.6-0.4-3-0.6-1.4-1.6-2.4-1.1-1.1-2.5-1.7-1.5-0.6-3.4-0.6-1.8-0.1-3.2 0.5-1.5 0.5-2.6 1.6-1.1 1-1.7 2.3-0.6 1.4-0.6 3 0 1.6 0.5 3 0.6 1.4 1.6 2.4 1 1.1 2.5 1.7 1.5 0.5 3.3 0.6 1.8 0 3.3-0.5 1.5-0.6 2.6-1.6 1-1 1.7-2.3 0.5-1.4 0.5-3z" fill="#ffffff" />
  </ns0:g>
</ns0:g></ns0:defs><ns0:style>.a{fill:#23292c}.b{stroke:#000;stroke-miterlimit:100}.c{fill:#262b31}.d{fill:#52555d}.e{fill:#000001}</ns0:style><ns0:path class="c" d="m383.3 126.7l-8.3 9-0.9-19.1 25.5-27.7h18.5l-25.4 27.9zm-6.7 22.4h-16.7v-60.1h16.7zm42.8 0h-19.5l-19.4-24.8 11-11.9zm45.9 0h-15.1v-8.6l-1.1-2.2v-15.9q0-3.9-2.4-6-2.3-2.1-7.3-2.1-3.4 0-6.9 1.1-3.3 1-5.7 2.9l-5.4-11q3.9-2.7 9.3-4 5.6-1.5 11-1.5 11.2 0 17.4 5.3 6.2 5.1 6.2 16.2zm-28.7 0.8q-5.5 0-9.3-1.9-3.8-1.9-5.9-5.2-1.9-3.2-1.9-7.2 0-4.3 2.1-7.4 2.2-3.2 6.6-4.8 4.6-1.8 11.7-1.8h10.9v8.6h-8.7q-3.9 0-5.5 1.3-1.5 1.2-1.5 3.4 0 2.1 1.5 3.4 1.7 1.3 4.5 1.3 2.7 0 4.8-1.3 2.2-1.4 3.2-4.1l2.2 6q-1.2 4.8-5 7.3-3.6 2.4-9.7 2.4zm10.1-52.9h-11.5l11.3-13h16.2zm26.5 69.5q-3.2 0-6.2-0.6-2.9-0.7-5-1.9l4.1-11.5q2.1 1.4 4.9 1.4 2.2 0 3.5-1.5 1.3-1.5 1.3-4.6v-45.3h16.1v45.3q0 8.6-4.9 13.6-4.9 5.1-13.8 5.1zm10.7-69.1q-4.5 0-7.3-2.5-2.6-2.5-2.6-6.2 0-3.7 2.6-6.1 2.8-2.5 7.3-2.5 4.4 0 7.1 2.3 2.7 2.4 2.7 6 0 3.9-2.7 6.5-2.7 2.5-7.1 2.5zm42.4 52.4q-7.6 0-13.5-3.1-5.8-3.1-9.2-8.5-3.4-5.4-3.4-12.5 0-7 3.4-12.3 3.4-5.5 9.2-8.5 5.9-3.1 13.5-3.1 7.6 0 13.4 3.1 5.9 3 9.3 8.5 3.3 5.3 3.3 12.4 0 7-3.3 12.4-3.4 5.4-9.3 8.5-5.9 3.1-13.4 3.1zm0-13q2.7 0 4.9-1.2 2.2-1.3 3.4-3.8 1.3-2.6 1.3-6 0-3.6-1.3-6-1.2-2.5-3.4-3.7-2.2-1.4-4.9-1.4-2.8 0-5 1.4-2.1 1.2-3.5 3.7-1.2 2.4-1.2 6 0 3.4 1.2 6 1.4 2.5 3.5 3.8 2.2 1.2 5 1.2zm61.4 12.3h-16.7l-19-46.6h16.6l15.1 38.9h-8.3l15.9-38.9h15.3zm44.7 0.8q-7.6 0-13.5-3.1-5.8-3.1-9.2-8.5-3.4-5.5-3.4-12.5 0-7.1 3.4-12.4 3.4-5.5 9.2-8.5 5.9-3.1 13.5-3.1 7.5 0 13.4 3.1 5.9 3 9.2 8.5 3.4 5.3 3.4 12.4 0 7-3.4 12.5-3.3 5.4-9.2 8.5-5.9 3.1-13.4 3.1zm0-13q2.7 0 4.9-1.3 2.2-1.3 3.4-3.8 1.3-2.5 1.3-6 0-3.6-1.3-6-1.2-2.5-3.4-3.7-2.2-1.3-4.9-1.3-2.8 0-5 1.3-2.1 1.2-3.5 3.7-1.2 2.4-1.2 6 0 3.5 1.2 6 1.4 2.5 3.5 3.8 2.2 1.3 5 1.3z" /><ns0:path class="d" d="m695.1 149h-28.1v-60.1h28.1q9.9 0 17.3 3.7 7.5 3.7 11.7 10.5 4.2 6.6 4.2 15.9 0 9.1-4.2 15.9-4.2 6.7-11.7 10.5-7.4 3.6-17.3 3.6zm-11.3-46.6v33.1h10.6q5.1 0 8.8-2 3.9-2 6-5.6 2.1-3.8 2.1-8.9 0-5.3-2.1-8.9-2.1-3.7-6-5.7-3.7-2-8.8-2zm95.5 46.6h-15.1v-8.7l-1-2.1v-16q0-3.8-2.4-5.9-2.3-2.1-7.4-2.1-3.4 0-6.8 1.1-3.3 1-5.7 2.9l-5.4-11.1q3.9-2.6 9.3-3.9 5.5-1.5 11-1.5 11.2 0 17.3 5.2 6.2 5.2 6.2 16.3zm-28.6 0.7q-5.5 0-9.4-1.8-3.8-2-5.8-5.2-2-3.2-2-7.2 0-4.4 2.1-7.5 2.2-3.1 6.7-4.8 4.6-1.7 11.6-1.7h11v8.5h-8.7q-3.9 0-5.5 1.4-1.6 1.2-1.6 3.4 0 2 1.6 3.4 1.7 1.2 4.5 1.2 2.6 0 4.7-1.2 2.3-1.4 3.3-4.2l2.2 6q-1.3 4.8-5 7.3-3.7 2.4-9.7 2.4zm62 16.7q-6.7 0-12.7-1.5-6-1.6-10.2-4.6l5.9-11.4q2.8 2.3 7.1 3.7 4.4 1.3 8.4 1.3 6.5 0 9.4-2.9 2.9-2.9 2.9-8.4v-5.4l0.9-13.1-0.1-13.1v-8.6h15.4v38.1q0 13.2-7.1 19.5-7.1 6.4-19.9 6.4zm-2.9-19.8q-6.1 0-11.2-2.8-5.2-2.8-8.3-7.8-3.1-5.1-3.1-11.9 0-6.9 3.1-11.9 3.1-5 8.3-7.8 5.1-2.7 11.2-2.7 6 0 10.1 2.4 4.1 2.3 6.3 7.4 2.2 4.9 2.2 12.6 0 7.7-2.2 12.7-2.2 4.9-6.3 7.4-4.1 2.4-10.1 2.4zm3.9-13q2.9 0 5.1-1.1 2.3-1.3 3.6-3.4 1.3-2.2 1.3-5 0-2.9-1.3-5-1.3-2.2-3.6-3.3-2.2-1.2-5.1-1.2-2.9 0-5.2 1.2-2.3 1.1-3.7 3.3-1.2 2.1-1.2 5 0 2.8 1.2 5 1.4 2.1 3.7 3.4 2.3 1.1 5.2 1.1zm52.6 15.4h-16.1v-46.6h15.4v13l-3.1-3.7q2.5-5 6.8-7.5 4.5-2.5 10-2.5 6.2 0 10.9 3.2 4.8 3.2 6.4 10l-5.3-1.2q2.4-5.6 7.4-8.8 4.9-3.2 11.5-3.2 5.3 0 9.5 2.2 4.3 2.1 6.6 6.7 2.5 4.6 2.5 11.8v26.6h-16.2v-24q0-5-1.9-7.2-1.8-2.3-5.1-2.3-2.3 0-4.2 1.2-1.8 1-2.8 3.3-1.1 2.2-1.1 5.9v23.1h-16.1v-24q0-5-1.9-7.2-1.7-2.3-5.1-2.3-2.3 0-4.2 1.2-1.8 1-2.9 3.3-1 2.2-1 5.9zm116 0h-15.1v-8.7l-1-2.1v-15.9q0-3.9-2.4-6-2.3-2.1-7.4-2.1-3.4 0-6.8 1.1-3.3 1-5.7 2.9l-5.4-11q3.9-2.7 9.3-4 5.5-1.5 11-1.5 11.2 0 17.3 5.3 6.2 5.1 6.2 16.2zm-28.6 0.7q-5.5 0-9.4-1.8-3.8-1.9-5.8-5.2-2-3.2-2-7.2 0-4.3 2.1-7.5 2.2-3.1 6.7-4.8 4.6-1.7 11.6-1.7h11v8.5h-8.7q-3.9 0-5.5 1.4-1.6 1.2-1.6 3.4 0 2.1 1.6 3.4 1.7 1.3 4.5 1.3 2.6 0 4.7-1.3 2.3-1.4 3.3-4.1l2.2 5.9q-1.3 4.9-5 7.4-3.7 2.3-9.7 2.3zm54.6-0.7h-16.1v-46.6h15.4v13.6l-2.4-3.9q2.1-5.2 6.7-7.7 4.5-2.7 11.1-2.7v14.7q-1.1-0.2-2-0.2-0.8-0.1-1.6-0.1-5 0-8.1 2.8-3 2.6-3 8.8z" /><ns0:path class="e" d="m369.3 204h-12.6v-26.9h12.6q4.4 0 7.7 1.7 3.3 1.6 5.2 4.7 1.9 2.9 1.9 7.1 0 4.1-1.9 7.1-1.9 3-5.2 4.7-3.3 1.6-7.7 1.6zm-5.1-20.8v14.8h4.7q2.3 0 4-0.9 1.7-0.9 2.6-2.5 1-1.7 1-4 0-2.4-1-4-0.9-1.7-2.6-2.5-1.7-0.9-4-0.9zm36.9 21.3q-3.2 0-5.9-1-2.7-1-4.7-2.9-2-1.9-3.1-4.4-1.1-2.6-1.1-5.6 0-3.1 1.1-5.6 1.1-2.5 3.1-4.4 2-1.9 4.7-2.9 2.7-1.1 5.9-1.1 3.2 0 5.9 1.1 2.7 1 4.7 2.9 1.9 1.9 3 4.4 1.2 2.5 1.2 5.6 0 3-1.2 5.6-1.1 2.5-3 4.4-2 1.9-4.7 2.9-2.7 1-5.9 1zm0-6.2q1.5 0 2.8-0.6 1.3-0.5 2.3-1.5 1-1.1 1.5-2.4 0.6-1.5 0.6-3.2 0-1.8-0.6-3.2-0.5-1.4-1.5-2.4-1-1-2.3-1.6-1.3-0.5-2.8-0.5-1.5 0-2.9 0.5-1.2 0.6-2.2 1.6-1 1-1.6 2.4-0.5 1.4-0.5 3.2 0 1.7 0.5 3.2 0.6 1.3 1.6 2.4 1 1 2.2 1.5 1.4 0.6 2.9 0.6zm32.8 6.2q-3.1 0-5.8-1-2.7-1-4.6-2.9-2-1.9-3.1-4.4-1.1-2.6-1.1-5.6 0-3.1 1.1-5.6 1.1-2.6 3.1-4.5 1.9-1.9 4.6-2.9 2.7-1 5.8-1 3.7 0 6.6 1.3 2.9 1.3 4.9 3.8l-4.8 4.3q-1.3-1.5-2.9-2.3-1.5-0.8-3.4-0.8-1.6 0-3 0.5-1.3 0.6-2.3 1.6-1 1-1.6 2.5-0.5 1.3-0.5 3.1 0 1.7 0.5 3.1 0.6 1.4 1.6 2.5 1 1 2.3 1.5 1.4 0.6 3 0.6 1.9 0 3.4-0.8 1.6-0.9 2.9-2.4l4.8 4.4q-2 2.4-4.9 3.7-2.9 1.3-6.6 1.3zm39.1-0.5h-7.6v-26.9h7.6zm-17.8 0h-7.5v-26.8h7.5zm10.8-10.5h-11.3v-6.3h11.3zm17.2 10.5h-7.7l11.7-26.9h7.4l11.8 26.9h-7.8l-9.2-23.2h3zm15.6-5.2h-16.9l1.9-5.6h13zm-6.4-23.8h-5.1l5-5.9h7.3zm38.8 29.1h-23.8v-4.8l15.6-18.8 1 2.7h-16.3v-6h22.9v4.8l-15.6 18.7-1-2.6h17.2zm14-10l-3.8 4-0.4-8.5 11.4-12.4h8.3l-11.4 12.5zm-3 10h-7.4v-26.9h7.4zm19.2 0h-8.7l-8.7-11.1 4.9-5.3zm13.8 0.5q-3.2 0-5.9-1-2.7-1-4.7-2.9-2-1.9-3.1-4.4-1.1-2.6-1.1-5.6 0-3.1 1.1-5.6 1.1-2.5 3.1-4.4 2-1.9 4.7-2.9 2.7-1.1 5.9-1.1 3.2 0 5.9 1.1 2.7 1 4.7 2.9 2 1.9 3 4.4 1.2 2.5 1.2 5.6 0 3-1.2 5.6-1 2.5-3 4.4-2 1.9-4.7 2.9-2.7 1-5.9 1zm0-6.2q1.5 0 2.8-0.5 1.3-0.6 2.3-1.6 1-1 1.5-2.4 0.6-1.5 0.6-3.2 0-1.8-0.6-3.2-0.5-1.4-1.5-2.4-1-1-2.3-1.6-1.3-0.5-2.8-0.5-1.5 0-2.9 0.5-1.2 0.6-2.2 1.6-1 1-1.6 2.4-0.5 1.4-0.5 3.2 0 1.7 0.5 3.2 0.6 1.4 1.6 2.4 1 1 2.2 1.6 1.4 0.5 2.9 0.5zm33.2 5.7h-7.4l-11.4-26.9h8.1l9.6 23.3h-4.8l9.8-23.3h7.4zm26.7 0h-7.5v-11.3l1.7 4.5-11.9-20h8l8.5 14.5h-4.6l8.7-14.5h7.3l-11.9 20 1.7-4.5zm-2.3-29.1h-5.2l5.1-5.8h7.3zm35.4 29.6q-3.3 0-6.3-0.8-3.1-0.9-4.9-2.2l2.4-5.6q1.8 1.2 4.1 1.9 2.4 0.8 4.7 0.8 1.6 0 2.5-0.3 1-0.3 1.4-0.8 0.4-0.5 0.4-1.1 0-0.9-0.8-1.4-0.8-0.6-2.2-0.9-1.3-0.4-2.9-0.7-1.6-0.4-3.3-0.9-1.5-0.6-2.9-1.4-1.3-0.9-2.2-2.3-0.8-1.4-0.8-3.6 0-2.3 1.3-4.3 1.3-2 3.9-3.2 2.7-1.1 6.6-1.1 2.6 0 5.1 0.6 2.6 0.5 4.5 1.7l-2.3 5.6q-1.9-1-3.7-1.5-1.9-0.5-3.6-0.5-1.6 0-2.5 0.3-1 0.3-1.4 0.9-0.4 0.5-0.4 1.2 0 0.8 0.8 1.4 0.8 0.5 2.1 0.8 1.4 0.3 3 0.7 1.6 0.3 3.2 0.9 1.6 0.5 2.9 1.4 1.4 0.8 2.2 2.2 0.9 1.4 0.9 3.5 0 2.4-1.4 4.3-1.3 2-3.9 3.2-2.6 1.2-6.5 1.2zm28.9-0.6h-7.5v-11.3l1.7 4.5-11.9-20h7.9l8.6 14.5h-4.6l8.7-14.5h7.3l-11.9 20 1.7-4.5zm21.1 0.5q-3.3 0-6.3-0.8-3.1-0.8-4.9-2.1l2.4-5.6q1.8 1.1 4.1 1.9 2.4 0.7 4.7 0.7 1.6 0 2.5-0.3 1-0.3 1.4-0.7 0.4-0.5 0.4-1.2 0-0.9-0.8-1.4-0.8-0.6-2.2-0.9-1.3-0.4-2.9-0.7-1.6-0.4-3.3-0.9-1.5-0.5-2.9-1.4-1.3-0.8-2.2-2.2-0.8-1.5-0.8-3.6 0-2.4 1.3-4.3 1.3-2.1 3.9-3.2 2.7-1.2 6.6-1.2 2.6 0 5.1 0.6 2.6 0.6 4.5 1.7l-2.3 5.6q-1.9-1-3.7-1.5-1.9-0.5-3.6-0.5-1.6 0-2.5 0.3-1 0.4-1.4 0.9-0.4 0.5-0.4 1.2 0 0.9 0.8 1.4 0.8 0.5 2.1 0.9 1.4 0.3 3 0.6 1.6 0.4 3.2 0.9 1.6 0.5 2.9 1.4 1.4 0.8 2.2 2.3 0.9 1.3 0.9 3.4 0 2.4-1.4 4.4-1.3 1.9-3.9 3.1-2.6 1.2-6.5 1.2zm27.8-0.5h-7.5v-20.9h-8.2v-6h23.9v6h-8.2zm32.2 0h-21.4v-26.8h20.9v5.9h-13.4v15h13.9zm-2.1-10.8h-12.4v-5.6h12.4zm-7.4-18.3h-5.1l5-5.8h7.3zm20 29.1h-6.9v-26.9h6.2l11 18.3h-3.3l10.8-18.3h6.2v26.9h-6.9l-0.1-16.3h1.2l-8 13.6h-3.3l-8.3-13.6h1.4z" /></svg></svg>